<svg xmlns="http://www.w3.org/2000/svg" viewBox="4011.864 11.763 156.999 87.671"><defs><style>.a{fill:#b7ffef;}.b{fill:#4a2347;}.c{fill:#ed3b7d;}.d,.e,.f{stroke:none;}.e{fill:#009b7a;}.f{fill:#fff;}</style></defs><g transform="translate(3980)"><g transform="translate(36.864 16.763)"><g class="a" transform="translate(-32.1 -29)"><path class="d" d="M 102.6190185546875 86.44050598144531 L 102.4413375854492 86.44050598144531 L 47.18661880493164 86.44050598144531 C 44.78344345092773 86.44050598144531 42.43217849731445 85.86610412597656 40.19812393188477 84.73326110839844 C 38.13409805297852 83.68663787841797 36.26664352416992 82.21472930908203 34.64761734008789 80.35843658447266 C 31.43979072570801 76.68048858642578 29.60000419616699 71.89153289794922 29.60000419616699 67.21949005126953 C 29.60000419616699 63.53765106201172 30.7404842376709 59.71669006347656 32.81136322021484 56.46050262451172 C 34.99691009521484 53.02401733398438 38.07910919189453 50.48171615600586 41.49077224731445 49.30112838745117 L 41.80252075195312 49.19143676757812 L 41.86157608032227 48.85481643676758 C 42.80831527709961 43.09773254394531 47.68919372558594 38.75790405273438 53.22125625610352 38.75790405273438 C 55.08200836181641 38.75790405273438 56.83081817626953 39.17885589599609 58.41949844360352 40.00913238525391 L 58.84582138061523 40.2247428894043 L 59.06941604614258 39.75093078613281 L 59.07201766967773 39.74542236328125 L 59.07464218139648 39.73992919921875 C 62.91817855834961 31.69698333740234 71.02082824707031 26.50000953674316 79.71712493896484 26.50000953674316 C 82.80258941650391 26.50000953674316 85.80084228515625 27.09454345703125 88.62859344482422 28.26711654663086 C 91.37064361572266 29.40414237976074 93.833740234375 31.03304862976074 95.94944763183594 33.10859680175781 C 98.07617950439453 35.1949577331543 99.74629974365234 37.62935638427734 100.9134063720703 40.34418106079102 C 102.1262435913086 43.16540908813477 102.7412033081055 46.16938400268555 102.7412033081055 49.27266311645508 C 102.7412033081055 49.88729476928711 102.7396087646484 50.43517684936523 102.7371368408203 50.91573333740234 L 103.3154678344727 50.92163467407227 L 103.3185272216797 50.92166137695312 L 103.3215942382812 50.92170333862305 C 105.5230407714844 50.94956970214844 107.6650466918945 51.50887680053711 109.6880874633789 52.58410263061523 C 111.5447235107422 53.57088851928711 113.2187805175781 54.94656753540039 114.6636962890625 56.67291641235352 C 117.4934997558594 60.05384826660156 119.1164703369141 64.43635559082031 119.1164703369141 68.69670104980469 C 119.1164703369141 72.95223236083984 117.4506683349609 77.32608795166016 114.5461883544922 80.69678497314453 C 113.0771484375 82.40161895751953 111.3809204101562 83.75833892822266 109.5046157836914 84.72927856445312 C 107.5213928222656 85.75553894042969 105.4341888427734 86.29826354980469 103.2978515625 86.34351348876953 L 102.7949142456055 86.41536712646484 L 102.6190185546875 86.44050598144531 Z"/><path class="e" d="M 102.4413375854492 83.94049835205078 L 103.1013717651367 83.84620666503906 C 110.5503997802734 83.78335571289062 116.6164627075195 76.20860290527344 116.6164627075195 68.69670867919922 C 116.6164627075195 61.18483352661133 110.7389831542969 53.51578903198242 103.2899551391602 53.42149353027344 L 100.2097702026367 53.39006423950195 C 100.2097702026367 53.39006423950195 100.2412033081055 51.9756965637207 100.2412033081055 49.27266311645508 C 100.2412033081055 37.95769500732422 90.96923065185547 29.00000381469727 79.71712493896484 29.00000381469727 C 71.92237091064453 29.00000381469727 64.72480010986328 33.71457290649414 61.33030700683594 40.81786346435547 L 60.01023101806641 43.61518859863281 L 57.27578353881836 42.23225021362305 C 56.01856994628906 41.57220458984375 54.6356315612793 41.25789642333984 53.22126007080078 41.25789642333984 C 48.78956985473633 41.25789642333984 45.04933929443359 44.84097290039062 44.32644653320312 49.27267837524414 L 44.01213836669922 51.06420135498047 L 42.31489181518555 51.6613883972168 C 36.21739959716797 53.76723480224609 32.09999847412109 60.74480438232422 32.09999847412109 67.219482421875 C 32.09999847412109 75.57998657226562 38.88898468017578 83.94049835205078 47.18661499023438 83.94049835205078 L 102.4413375854492 83.94049835205078 M 102.7966918945312 88.94049835205078 L 102.4413375854492 88.94049835205078 L 47.18661499023438 88.94049835205078 C 44.38687515258789 88.94049835205078 41.65521621704102 88.27515411376953 39.06747817993164 86.96297454833984 C 36.71562957763672 85.7703857421875 34.59469223022461 84.10117340087891 32.76355361938477 82.00167846679688 C 29.16429138183594 77.87492370605469 27.10000038146973 72.48703002929688 27.10000038146973 67.219482421875 C 27.10000038146973 63.06841659545898 28.37916946411133 58.77101898193359 30.70184516906738 55.118896484375 C 31.89016914367676 53.25041961669922 33.30869293212891 51.61303329467773 34.91799926757812 50.25223541259766 C 36.37232208251953 49.02249145507812 37.95014953613281 48.04658508300781 39.62080001831055 47.34211730957031 C 40.31512451171875 44.50263595581055 41.84499740600586 41.89979553222656 44.00193786621094 39.9199104309082 C 46.57461547851562 37.55841827392578 49.84877014160156 36.25789642333984 53.22126007080078 36.25789642333984 C 54.78064727783203 36.25789642333984 56.27880477905273 36.50213241577148 57.69635009765625 36.98587417602539 C 62.23235702514648 29.03973007202148 70.68324279785156 24.00000381469727 79.71712493896484 24.00000381469727 C 83.13288879394531 24.00000381469727 86.45332336425781 24.65869522094727 89.586181640625 25.95777130126953 C 92.62510681152344 27.21791076660156 95.35506439208984 29.02335739135742 97.70018768310547 31.32397270202637 C 100.0601806640625 33.63915634155273 101.9140014648438 36.34180450439453 103.2101516723633 39.35681915283203 C 104.4641723632812 42.2738037109375 105.1429748535156 45.36481857299805 105.2312927246094 48.55562210083008 C 107.172492980957 48.80915832519531 109.0593719482422 49.41878128051758 110.8613815307617 50.37652587890625 C 113.0038452148438 51.51523208618164 114.9281387329102 53.09377288818359 116.5808029174805 55.06832504272461 C 119.7810287475586 58.89184951782227 121.6164627075195 63.85920333862305 121.6164627075195 68.69670867919922 C 121.6164627075195 73.54232788085938 119.729736328125 78.51100158691406 116.4400787353516 82.32871246337891 C 114.7616424560547 84.27655792236328 112.8147811889648 85.83124542236328 110.6535873413086 86.94961547851562 C 108.3761138916016 88.12813568115234 105.9740219116211 88.76300811767578 103.507926940918 88.83888244628906 L 103.1484603881836 88.89023590087891 L 102.7966918945312 88.94049835205078 Z"/></g><g transform="translate(13.618 17.523)"><path class="b" d="M101.065,146.119h5.72a1.188,1.188,0,0,0,1.194-1.163V131.819c.566-9.083,6.035-18.544,13.892-23.227.189,1.446.22,2.546.471,3.583a4.748,4.748,0,0,0,.409.911,1.2,1.2,0,0,0,1.6.409,1.946,1.946,0,0,0,.723-.6c2.42-3.74,4.746-7.543,7.1-11.315.974-1.572.189-2.923-1.7-2.923-4.4-.031-8.832-.063-13.232,0a2.234,2.234,0,0,0-.629.126,1.331,1.331,0,0,0-.723,1.917,2.517,2.517,0,0,0,.471.66,21.017,21.017,0,0,0,2.389,1.98c-4.495,2.766-8.549,5.815-11.786,10.4V97.371c1.163.409,2.2.88,3.269,1.163a3.462,3.462,0,0,0,.566.063,1.389,1.389,0,0,0,1.414-1.729l-.094-.283c-1.446-2.7-4.526-7.889-6.412-10.875a2.046,2.046,0,0,0-3.332-.189l-.094.189c-1.886,2.986-4.966,8.172-6.412,10.875a1,1,0,0,0-.094.283A1.391,1.391,0,0,0,97.2,98.6a3.463,3.463,0,0,0,.566-.063,27.463,27.463,0,0,0,3.269-1.163v16.375c-3.269-4.557-7.292-7.606-11.786-10.4a21.016,21.016,0,0,0,2.389-1.98,5.012,5.012,0,0,0,.471-.66,1.338,1.338,0,0,0-.723-1.917,2.233,2.233,0,0,0-.629-.126c-4.4-.063-8.832-.031-13.232,0-1.854,0-2.64,1.352-1.7,2.923,2.326,3.8,4.683,7.575,7.1,11.315a1.945,1.945,0,0,0,.723.6,1.2,1.2,0,0,0,1.6-.409,2.63,2.63,0,0,0,.409-.911,30.368,30.368,0,0,0,.471-3.583c7.858,4.683,13.327,14.144,13.892,23.227v13.138a1.167,1.167,0,0,0,1.194,1.163Z" transform="translate(-75.426 -84.752)"/></g></g><g class="c" transform="translate(89.461 85.727)"><path class="d" d="M 53.61731338500977 12.70645141601562 C 52.12249755859375 12.70645141601562 50.78524398803711 12.38582515716553 49.6427001953125 11.75347805023193 C 48.47764587402344 11.10866451263428 47.5646858215332 10.17431831359863 46.92919158935547 8.976371765136719 C 46.77634048461914 8.688231468200684 46.64204406738281 8.387720108032227 46.52644729614258 8.075458526611328 L 46.52644729614258 9.937745094299316 C 46.52644729614258 10.93815803527832 46.10746002197266 11.55875778198242 45.75597763061523 11.90322494506836 C 45.25032424926758 12.39874458312988 44.5843505859375 12.64999771118164 43.77655410766602 12.64999771118164 C 42.78103256225586 12.64999771118164 42.16211318969727 12.24003791809082 41.81819152832031 11.8961181640625 C 41.47427368164062 11.55219841003418 41.06430053710938 10.93326473236084 41.06430053710938 9.937745094299316 L 41.06430053710938 8.134968757629395 C 40.9556999206543 8.422140121459961 40.8311767578125 8.69895076751709 40.69081878662109 8.964971542358398 C 40.06239318847656 10.15606498718262 39.15365982055664 11.09030437469482 37.98987197875977 11.74173164367676 C 36.84624481201172 12.38187789916992 35.50125885009766 12.70645141601562 33.99224472045898 12.70645141601562 C 32.47075271606445 12.70645141601562 31.11941909790039 12.38186454772949 29.9758186340332 11.74173164367676 C 28.81201934814453 11.09030437469482 27.90328598022461 10.15606498718262 27.27484512329102 8.964958190917969 C 27.12632751464844 8.683467864990234 26.99551582336426 8.389841079711914 26.88256645202637 8.084696769714355 L 26.88256645202637 9.937745094299316 C 26.88256645202637 10.70955848693848 26.62432479858398 11.38101100921631 26.13577842712402 11.87953186035156 C 25.64183235168457 12.38357162475586 24.96868515014648 12.64999771118164 24.18912506103516 12.64999771118164 C 23.41347312927246 12.64999771118164 22.74277877807617 12.38931846618652 22.24957847595215 11.89613151550293 C 21.9056453704834 11.55218505859375 21.49568557739258 10.93323802947998 21.49568557739258 9.937745094299316 L 21.49568557739258 7.174544811248779 L 18.07668495178223 7.174544811248779 L 18.07668495178223 9.937745094299316 C 18.07668495178223 10.70954513549805 17.81845855712891 11.38099765777588 17.32992553710938 11.87951850891113 C 16.83593940734863 12.38357162475586 16.16279220581055 12.64999771118164 15.38324546813965 12.64999771118164 C 14.60757923126221 12.64999771118164 13.93688583374023 12.38930511474609 13.44369888305664 11.8961181640625 C 13.24894237518311 11.70136165618896 13.03300285339355 11.41840934753418 12.88232612609863 11.02882671356201 C 12.79347133636475 11.11077785491943 12.69658374786377 11.1888313293457 12.59189891815186 11.26273155212402 L 12.58971214294434 11.26427841186523 L 12.58749866485596 11.26582431793213 C 11.21779251098633 12.22175788879395 9.61351203918457 12.70645141601562 7.81923246383667 12.70645141601562 C 6.324419021606445 12.70645141601562 4.987165451049805 12.38582515716553 3.844618797302246 11.75347805023193 C 2.679565668106079 11.10866451263428 1.766605615615845 10.17431831359863 1.131112217903137 8.976371765136719 C 0.5106189250946045 7.806704521179199 0.196005567908287 6.433557987213135 0.196005567908287 4.8950514793396 C 0.196005567908287 3.369038105010986 0.5106189250946045 2.002224683761597 1.131098866462708 0.8325713872909546 C 1.766605615615845 -0.365375280380249 2.679552316665649 -1.299735307693481 3.844618797302246 -1.944548606872559 C 4.987165451049805 -2.576895236968994 6.324419021606445 -2.89752197265625 7.81923246383667 -2.89752197265625 C 9.61351203918457 -2.89752197265625 11.21779251098633 -2.412828683853149 12.58749866485596 -1.456895232200623 L 12.58971214294434 -1.455348610877991 L 12.59189891815186 -1.453801989555359 C 12.69830322265625 -1.378691434860229 12.79663467407227 -1.299630045890808 12.88664531707764 -1.216885685920715 C 13.01340389251709 -1.538138508796692 13.20022964477539 -1.82490599155426 13.44369888305664 -2.0683753490448 C 13.93688583374023 -2.561562061309814 14.60757923126221 -2.822255373001099 15.38324546813965 -2.822255373001099 C 16.15889930725098 -2.822255373001099 16.82959175109863 -2.561575174331665 17.32279205322266 -2.068388700485229 C 17.81600570678711 -1.575161933898926 18.07668495178223 -0.9044685959815979 18.07668495178223 -0.1288152784109116 L 18.07668495178223 2.427411317825317 L 21.49568557739258 2.427411317825317 L 21.49568557739258 -0.1288152784109116 C 21.49568557739258 -0.9044685959815979 21.7563648223877 -1.575161933898926 22.24955177307129 -2.06836199760437 C 22.74277877807617 -2.561575174331665 23.41347312927246 -2.822255373001099 24.18912506103516 -2.822255373001099 C 24.96479225158691 -2.822255373001099 25.63548469543457 -2.561562061309814 26.12867164611816 -2.0683753490448 C 26.62187194824219 -1.575175285339355 26.88256645202637 -0.9044819474220276 26.88256645202637 -0.1288152784109116 L 26.88256645202637 1.705429315567017 C 26.99551773071289 1.400283098220825 27.1263370513916 1.106637716293335 27.27485847473145 0.8251447081565857 C 27.90408515930176 -0.3674685955047607 28.81423187255859 -1.299348592758179 29.98001861572266 -1.944548606872559 C 31.1225528717041 -2.576895236968994 32.47245788574219 -2.89752197265625 33.99224472045898 -2.89752197265625 C 35.51203155517578 -2.89752197265625 36.8619384765625 -2.576895236968994 38.00448608398438 -1.944548606872559 C 39.17179107666016 -1.298495292663574 40.07952499389648 -0.3652019500732422 40.70247268676758 0.8294247388839722 C 40.83806610107422 1.089442133903503 40.95872116088867 1.359848260879517 41.06430053710938 1.640090465545654 L 41.06430053710938 -0.1288152784109116 C 41.06430053710938 -0.9044819474220276 41.32499313354492 -1.575175285339355 41.81819152832031 -2.0683753490448 C 42.16211318969727 -2.412295341491699 42.78103256225586 -2.822255373001099 43.77655410766602 -2.822255373001099 C 44.5843505859375 -2.822255373001099 45.25032424926758 -2.571002006530762 45.75596618652344 -2.07549524307251 C 46.26001739501953 -1.581508636474609 46.52644729614258 -0.9083619713783264 46.52644729614258 -0.1288152784109116 L 46.52644729614258 1.73231053352356 C 46.64204025268555 1.420816421508789 46.77633285522461 1.120707869529724 46.92918014526367 0.8325713872909546 C 47.5646858215332 -0.365375280380249 48.47763061523438 -1.299735307693481 49.6427001953125 -1.944548606872559 C 50.78524398803711 -2.576895236968994 52.12249755859375 -2.89752197265625 53.61731338500977 -2.89752197265625 C 55.41159057617188 -2.89752197265625 57.01587295532227 -2.412828683853149 58.38557815551758 -1.456895232200623 L 58.38777923583984 -1.45536196231842 L 58.38996505737305 -1.453815221786499 C 58.4932746887207 -1.380890130996704 58.58896636962891 -1.304248452186584 58.67682647705078 -1.224120259284973 C 58.79476165771484 -1.527845859527588 58.96763229370117 -1.794216632843018 59.19472503662109 -2.021322011947632 C 59.66379165649414 -2.490361928939819 60.3005256652832 -2.728175163269043 61.08725738525391 -2.728175163269043 L 67.59757995605469 -2.728175163269043 C 68.37131500244141 -2.728175163269043 68.99585723876953 -2.538175344467163 69.45384216308594 -2.163455247879028 C 69.81000518798828 -1.872055292129517 70.23458099365234 -1.33148193359375 70.23458099365234 -0.4110552668571472 C 70.23458099365234 0.537624716758728 69.81492614746094 1.084064722061157 69.46288299560547 1.37539803981781 C 69.00723266601562 1.752491354942322 68.37964630126953 1.943691372871399 67.59757995605469 1.943691372871399 L 63.85595321655273 1.943691372871399 L 63.85595321655273 2.465038061141968 L 67.22126007080078 2.465038061141968 C 68.00076293945312 2.465038061141968 68.62656402587891 2.653198003768921 69.08127593994141 3.024278163909912 C 69.43572235107422 3.313544750213623 69.85824584960938 3.856598138809204 69.85824584960938 4.800971508026123 C 69.85824584960938 5.721397876739502 69.43370056152344 6.261958122253418 69.07753753662109 6.55335807800293 C 68.61951446533203 6.928091526031494 67.99497985839844 7.118091583251953 67.22126007080078 7.118091583251953 L 63.85595321655273 7.118091583251953 L 63.85595321655273 7.865238189697266 L 67.59757995605469 7.865238189697266 C 68.37964630126953 7.865238189697266 69.00723266601562 8.056438446044922 69.46288299560547 8.433518409729004 C 69.81492614746094 8.724864959716797 70.23458099365234 9.271291732788086 70.23458099365234 10.21998500823975 C 70.23458099365234 11.14043807983398 69.80998992919922 11.68099784851074 69.45380401611328 11.97239780426025 C 68.99587249755859 12.34709167480469 68.37132263183594 12.53710460662842 67.59757995605469 12.53710460662842 L 61.08725738525391 12.53710460662842 C 60.3005256652832 12.53710460662842 59.66379165649414 12.29929161071777 59.19475173950195 11.83027839660645 C 58.96747589111328 11.60298824310303 58.79450988769531 11.33638572692871 58.67656707763672 11.03237056732178 C 58.58874893188477 11.11304378509521 58.49315643310547 11.18990230560303 58.38996505737305 11.26274490356445 L 58.38777923583984 11.26429176330566 L 58.38557815551758 11.26582431793213 C 57.01587295532227 12.22175788879395 55.41159057617188 12.70645141601562 53.61731338500977 12.70645141601562 Z M 33.99224472045898 1.755531430244446 C 33.29043197631836 1.755531430244446 32.78988647460938 1.969731450080872 32.41700744628906 2.429624795913696 C 32.00329971313477 2.9398512840271 31.79353904724121 3.769344806671143 31.79353904724121 4.8950514793396 C 31.79353904724121 6.022411346435547 32.00423049926758 6.856211185455322 32.41975402832031 7.373291492462158 C 32.79260635375977 7.837291240692139 33.29227066040039 8.053398132324219 33.99224472045898 8.053398132324219 C 34.69039154052734 8.053398132324219 35.18920516967773 7.835384845733643 35.56203079223633 7.367291450500488 C 35.97936630249023 6.843304634094238 36.19096374511719 6.011518001556396 36.19096374511719 4.8950514793396 C 36.19096374511719 3.782211303710938 35.97824478149414 2.95615816116333 35.5587272644043 2.439824819564819 C 35.17940521240234 1.972971439361572 34.68164443969727 1.755531430244446 33.99224472045898 1.755531430244446 Z M 53.80547332763672 1.830798029899597 C 52.99876403808594 1.830798029899597 52.43704605102539 2.039331436157227 52.08823394775391 2.468331336975098 C 51.69384384155273 2.953397989273071 51.49385833740234 3.769878149032593 51.49385833740234 4.8950514793396 C 51.49385833740234 6.016704559326172 51.69939041137695 6.862358093261719 52.0882453918457 7.340624809265137 C 52.43704605102539 7.769598007202148 52.99876403808594 7.978131294250488 53.80547332763672 7.978131294250488 C 54.07426071166992 7.978131294250488 54.32612609863281 7.936997890472412 54.57547378540039 7.852397918701172 C 54.88863754272461 7.746151447296143 55.30487060546875 7.575550556182861 55.81293106079102 7.345200061798096 C 56.10015487670898 7.195254325866699 56.30733871459961 7.096027374267578 56.46347045898438 7.033584594726562 C 56.70697784423828 6.936184883117676 56.98386001586914 6.886797904968262 57.28643035888672 6.886797904968262 C 57.73282623291016 6.886797904968262 58.14070129394531 7.025986194610596 58.48789978027344 7.29347038269043 L 58.48789978027344 2.515460014343262 C 58.14070510864258 2.782938957214355 57.73282623291016 2.922131299972534 57.28643035888672 2.922131299972534 C 56.97882080078125 2.922131299972534 56.68975067138672 2.872211456298828 56.42724609375 2.773771286010742 C 56.21452713012695 2.694009304046631 55.98624801635742 2.577503442764282 55.72975540161133 2.417742490768433 C 55.36930847167969 2.202107667922974 55.03328323364258 2.048284530639648 54.73088455200195 1.960491418838501 C 54.4344596862793 1.874438047409058 54.12310028076172 1.830798029899597 53.80547332763672 1.830798029899597 Z M 8.007378578186035 1.830798029899597 C 7.200672149658203 1.830798029899597 6.638965606689453 2.039331436157227 6.290165424346924 2.468317985534668 C 5.895752429962158 2.953397989273071 5.695765495300293 3.769878149032593 5.695765495300293 4.8950514793396 C 5.695765495300293 6.016704559326172 5.901298999786377 6.862358093261719 6.290165424346924 7.340611457824707 C 6.638965606689453 7.769598007202148 7.200672149658203 7.978131294250488 8.007378578186035 7.978131294250488 C 8.276179313659668 7.978131294250488 8.528045654296875 7.936997890472412 8.777392387390137 7.852397918701172 C 9.090569496154785 7.746151447296143 9.506722450256348 7.575582027435303 10.01464462280273 7.345300197601318 C 10.3019552230835 7.19530725479126 10.50921726226807 7.096039295196533 10.66537857055664 7.033584594726562 C 10.90888595581055 6.936184883117676 11.18576526641846 6.886797904968262 11.48833847045898 6.886797904968262 C 11.93473434448242 6.886797904968262 12.34260368347168 7.025978088378906 12.68980598449707 7.293461799621582 L 12.68980598449707 2.515467166900635 C 12.34260368347168 2.782951354980469 11.93473434448242 2.922131299972534 11.48833847045898 2.922131299972534 C 11.18071269989014 2.922131299972534 10.89163208007812 2.872211456298828 10.6291389465332 2.773758172988892 C 10.41642189025879 2.694009065628052 10.18815517425537 2.577499151229858 9.931675910949707 2.417750835418701 C 9.57121753692627 2.202116012573242 9.235175132751465 2.048271417617798 8.932806015014648 1.960491418838501 C 8.63636589050293 1.874438047409058 8.325005531311035 1.830798029899597 8.007378578186035 1.830798029899597 Z M 56.966552734375 -3.938482046127319 C 56.50362014770508 -3.938482046127319 56.06261825561523 -4.046535491943359 55.65581893920898 -4.259628772735596 C 55.24673843383789 -4.473908424377441 54.89696502685547 -4.791321754455566 54.61624526977539 -5.203028678894043 L 52.17472076416016 -8.771403312683105 C 52.0459098815918 -8.954643249511719 51.95289993286133 -9.022972106933594 51.91875076293945 -9.043895721435547 C 51.87647247314453 -9.069802284240723 51.80611038208008 -9.075242042541504 51.75452423095703 -9.075242042541504 L 51.53149795532227 -9.075242042541504 L 51.53149795532227 -6.707175254821777 C 51.53149795532227 -5.911935329437256 51.2834587097168 -5.255508422851562 50.79425811767578 -4.7561354637146 C 50.45408630371094 -4.408868789672852 49.83855056762695 -3.994921922683716 48.83804702758789 -3.994921922683716 C 47.8425407409668 -3.994921922683716 47.22360610961914 -4.404895305633545 46.87968444824219 -4.748815059661865 C 46.5357780456543 -5.092708587646484 46.12580490112305 -5.711628437042236 46.12580490112305 -6.707175254821777 L 46.12580490112305 -8.624490737915039 C 46.00279998779297 -8.300673484802246 45.85863494873047 -7.99091911315918 45.69344711303711 -7.695801734924316 C 45.03771209716797 -6.524335384368896 44.07723236083984 -5.618215084075928 42.83865737915039 -5.002602100372314 C 41.64413833618164 -4.408868789672852 40.21243286132812 -4.107815265655518 38.58333969116211 -4.107815265655518 L 34.78251266479492 -4.107815265655518 C 33.99575042724609 -4.107815265655518 33.35900497436523 -4.34564208984375 32.88999176025391 -4.814682006835938 C 32.42099380493164 -5.283668518066406 32.18316650390625 -5.920402050018311 32.18316650390625 -6.707175254821777 L 32.18316650390625 -16.77374839782715 C 32.18316650390625 -17.56052207946777 32.42099380493164 -18.19725608825684 32.89001846313477 -18.66626930236816 C 33.35900497436523 -19.13528251647949 33.99575042724609 -19.37310791015625 34.78251266479492 -19.37310791015625 L 38.58333969116211 -19.37310791015625 C 40.20160675048828 -19.37310791015625 41.6284065246582 -19.06817436218262 42.82410049438477 -18.46677589416504 C 44.05825805664062 -17.84605598449707 45.01924514770508 -16.94284248352051 45.68035125732422 -15.78224182128906 C 45.85103225708008 -15.48260402679443 45.99955749511719 -15.16795921325684 46.12580490112305 -14.8388843536377 L 46.12580490112305 -16.77374839782715 C 46.12580490112305 -17.56052207946777 46.36363220214844 -18.19725608825684 46.83266067504883 -18.66626930236816 C 47.30167388916016 -19.13529586791992 47.93840408325195 -19.37310791015625 48.72515106201172 -19.37310791015625 L 53.44796371459961 -19.37310791015625 C 55.29225921630859 -19.37310791015625 56.73035049438477 -18.94034767150879 57.72228622436523 -18.08682823181152 C 58.1989631652832 -17.67665481567383 58.56754684448242 -17.18608283996582 58.82658004760742 -16.61865425109863 L 58.82658004760742 -16.77374839782715 C 58.82658004760742 -17.56050872802734 59.06440734863281 -18.19725608825684 59.533447265625 -18.66626930236816 C 60.00243377685547 -19.13528251647949 60.63917922973633 -19.37310791015625 61.42593765258789 -19.37310791015625 L 67.93625640869141 -19.37310791015625 C 68.70996856689453 -19.37310791015625 69.33451080322266 -19.18310928344727 69.79252624511719 -18.80838775634766 C 70.14869689941406 -18.51697540283203 70.5732421875 -17.97640228271484 70.5732421875 -17.05598831176758 C 70.5732421875 -16.10729598999023 70.15360260009766 -15.56086826324463 69.80158233642578 -15.26952171325684 C 69.34592437744141 -14.89242839813232 68.71833801269531 -14.70122814178467 67.93625640869141 -14.70122814178467 L 64.19463348388672 -14.70122814178467 L 64.19463348388672 -14.17988204956055 L 67.5599365234375 -14.17988204956055 C 68.33944702148438 -14.17988204956055 68.96524810791016 -13.99173545837402 69.41995239257812 -13.62065505981445 C 69.77440643310547 -13.33138847351074 70.19692230224609 -12.78833484649658 70.19692230224609 -11.84394836425781 C 70.19692230224609 -10.923508644104 69.77236175537109 -10.38294887542725 69.41620635986328 -10.09154891967773 C 68.95824432373047 -9.716841697692871 68.33370208740234 -9.526828765869141 67.5599365234375 -9.526828765869141 L 64.19463348388672 -9.526828765869141 L 64.19463348388672 -8.779695510864258 L 67.93625640869141 -8.779695510864258 C 68.37458038330078 -8.779695510864258 68.73921966552734 -8.719870567321777 69.04251861572266 -8.621194839477539 L 73.54756927490234 -17.87020111083984 C 73.79776763916016 -18.38984107971191 74.17833709716797 -18.79908180236816 74.67674255371094 -19.08246803283691 C 75.14757537841797 -19.35021591186523 75.67157745361328 -19.48600196838379 76.23411560058594 -19.48600196838379 C 76.78118896484375 -19.48600196838379 77.29957580566406 -19.35160255432129 77.77488708496094 -19.08652114868164 C 78.28300476074219 -18.80316162109375 78.66918182373047 -18.39253616333008 78.92264556884766 -17.8660945892334 L 83.04273986816406 -9.407428741455078 L 83.04273986816406 -16.77374839782715 C 83.04273986816406 -17.53326797485352 83.30097961425781 -18.19821548461914 83.78955078125 -18.69672203063965 C 84.283447265625 -19.20074844360352 84.93707275390625 -19.4671745300293 85.67972564697266 -19.4671745300293 C 86.22711181640625 -19.4671745300293 86.73110198974609 -19.30764198303223 87.17767333984375 -18.99301528930664 C 87.58349609375 -18.70710182189941 87.92182922363281 -18.30676460266113 88.18329620361328 -17.80311965942383 L 90.75763702392578 -12.96220588684082 L 93.31699371337891 -17.80120468139648 C 94.03003692626953 -19.17793083190918 95.05191040039062 -19.4671745300293 95.78391265869141 -19.4671745300293 C 96.53052520751953 -19.4671745300293 97.18339538574219 -19.19818878173828 97.67189788818359 -18.68928146362305 C 98.14958953857422 -18.19170951843262 98.402099609375 -17.52932167053223 98.402099609375 -16.77374839782715 L 98.402099609375 -6.537841796875 C 98.402099609375 -5.604521751403809 98.0177001953125 -5.024215221405029 97.69522094726562 -4.701761722564697 C 97.23283386230469 -4.239348411560059 96.61093902587891 -3.994921922683716 95.89680480957031 -3.994921922683716 C 95.19928741455078 -3.994921922683716 94.58340454101562 -4.236615180969238 94.11576843261719 -4.693881988525391 C 93.78536224365234 -5.016935348510742 93.39152526855469 -5.599081993103027 93.39152526855469 -6.537841796875 L 93.39152526855469 -8.131579399108887 L 93.12738037109375 -7.644999504089355 C 92.83800506591797 -7.101405143737793 92.51772308349609 -6.709527492523193 92.14832305908203 -6.447068691253662 C 91.738525390625 -6.155895233154297 91.25878143310547 -6.008242130279541 90.72241973876953 -6.008242130279541 C 90.18605804443359 -6.008242130279541 89.706298828125 -6.155895233154297 89.29648590087891 -6.447082042694092 C 88.92790985107422 -6.708946704864502 88.60823822021484 -7.099668502807617 88.31939697265625 -7.641360282897949 L 88.07211303710938 -8.08777904510498 L 88.07211303710938 -6.537841796875 C 88.07211303710938 -5.811401844024658 87.82443237304688 -5.17974853515625 87.35585784912109 -4.711175441741943 C 86.88728332519531 -4.242601871490479 86.26213836669922 -3.994921922683716 85.54801940917969 -3.994921922683716 C 84.85050201416016 -3.994921922683716 84.234619140625 -4.236615180969238 83.76697540283203 -4.693881988525391 C 83.693359375 -4.765864849090576 83.61656951904297 -4.850732803344727 83.54170227050781 -4.94952917098999 C 83.47191619873047 -4.872971057891846 83.39638519287109 -4.799345016479492 83.31524658203125 -4.728921890258789 C 82.80452728271484 -4.28566837310791 82.18423461914062 -4.051375389099121 81.52140808105469 -4.051375389099121 C 81.04227447509766 -4.051375389099121 80.59674072265625 -4.179321765899658 80.19716644287109 -4.431655406951904 C 79.79318237304688 -4.68681526184082 79.47708892822266 -5.058988571166992 79.25757598876953 -5.537868499755859 L 79.25536346435547 -5.542708396911621 L 79.25320434570312 -5.547562122344971 L 78.67071533203125 -6.85496187210083 L 73.86693572998047 -6.85496187210083 L 73.26807403564453 -5.540055274963379 C 73.04582214355469 -5.055148601531982 72.72322082519531 -4.680895328521729 72.30823516845703 -4.425508499145508 C 71.90480804443359 -4.177255153656006 71.45941925048828 -4.051375389099121 70.98444366455078 -4.051375389099121 C 70.45221710205078 -4.051375389099121 69.95851898193359 -4.194660663604736 69.51194763183594 -4.478060245513916 C 69.09046936035156 -4.232170104980469 68.56215667724609 -4.107815265655518 67.93625640869141 -4.107815265655518 L 61.42593765258789 -4.107815265655518 C 60.63917922973633 -4.107815265655518 60.00243377685547 -4.34564208984375 59.53342056274414 -4.814682006835938 C 59.43494415283203 -4.913150787353516 59.34663009643555 -5.019060134887695 59.26860046386719 -5.132155895233154 C 59.13396453857422 -4.924901962280273 58.96184921264648 -4.735273361206055 58.75379180908203 -4.566468715667725 C 58.24017715454102 -4.149762153625488 57.63887405395508 -3.938482046127319 56.966552734375 -3.938482046127319 Z M 57.3458251953125 -10.27705383300781 C 57.54577255249023 -10.07208919525146 57.74084854125977 -9.834310531616211 57.93405914306641 -9.560602188110352 L 57.93584442138672 -9.55806827545166 L 57.93761825561523 -9.555521965026855 L 58.82658004760742 -8.279426574707031 L 58.82658004760742 -12.09358978271484 C 58.67045593261719 -11.75360202789307 58.47462844848633 -11.43475437164307 58.2393913269043 -11.13804149627686 C 57.98013687133789 -10.8110237121582 57.68183135986328 -10.52375984191895 57.3458251953125 -10.27705383300781 Z M 37.64529800415039 -8.89258861541748 L 38.33873748779297 -8.89258861541748 C 39.35368728637695 -8.89258861541748 40.09620666503906 -9.116055488586426 40.54565811157227 -9.556801795959473 C 40.98970031738281 -9.992215156555176 41.2148323059082 -10.73006820678711 41.2148323059082 -11.74986839294434 C 41.2148323059082 -12.76773548126221 40.99088668823242 -13.50125503540039 40.54921722412109 -13.93005561828613 C 40.09932708740234 -14.36685562133789 39.35560607910156 -14.58833503723145 38.33873748779297 -14.58833503723145 L 37.64529800415039 -14.58833503723145 L 37.64529800415039 -8.89258861541748 Z M 75.93450927734375 -11.45156192779541 L 76.60897064208984 -11.45156192779541 L 76.27173614501953 -12.20358848571777 L 75.93450927734375 -11.45156192779541 Z M 51.49385833740234 -13.67185497283936 L 52.90229797363281 -13.67185497283936 C 53.7054328918457 -13.67185497283936 53.94171142578125 -13.82464218139648 53.96601867675781 -13.84205532073975 C 54.02596664428711 -13.88504219055176 54.04732513427734 -14.05305480957031 54.04732513427734 -14.19594860076904 C 54.04732513427734 -14.35170841217041 54.02335357666016 -14.53578853607178 53.95604705810547 -14.58530902862549 C 53.93203353881836 -14.6029748916626 53.69880676269531 -14.75768184661865 52.90229797363281 -14.75768184661865 L 51.49385833740234 -14.75768184661865 L 51.49385833740234 -13.67185497283936 Z M 21.70541954040527 -3.994921922683716 C 20.93808555603027 -3.994921922683716 20.28833961486816 -4.230535507202148 19.77421951293945 -4.695215225219727 C 19.40072631835938 -5.032788753509521 18.95552635192871 -5.655868530273438 18.95552635192871 -6.707175254821777 L 18.95552635192871 -10.92874526977539 L 15.93165874481201 -14.46144771575928 L 15.93165874481201 -6.537841796875 C 15.93165874481201 -5.604495048522949 15.54727268218994 -5.0242018699646 15.22480583190918 -4.701761722564697 C 14.76239204406738 -4.239348411560059 14.14051246643066 -3.994921922683716 13.42639255523682 -3.994921922683716 C 12.72887229919434 -3.994921922683716 12.11299228668213 -4.236615180969238 11.64535236358643 -4.693881988525391 C 11.31496524810791 -5.016908645629883 10.92111206054688 -5.599055290222168 10.92111206054688 -6.537841796875 L 10.92111206054688 -8.131600379943848 L 10.6569242477417 -7.644938945770264 C 10.36758899688721 -7.101409435272217 10.04732704162598 -6.709551334381104 9.677925109863281 -6.447082042694092 C 9.268112182617188 -6.155895233154297 8.788352012634277 -6.008242130279541 8.251992225646973 -6.008242130279541 C 7.715632438659668 -6.008242130279541 7.235872268676758 -6.155895233154297 6.826058864593506 -6.447082042694092 C 6.457471370697021 -6.708972930908203 6.13780403137207 -7.09968900680542 5.848970413208008 -7.641354084014893 L 5.601698875427246 -8.08775806427002 L 5.601698875427246 -6.537841796875 C 5.601698875427246 -5.811401844024658 5.354018688201904 -5.17974853515625 4.885445594787598 -4.711175441741943 C 4.416872024536133 -4.242601871490479 3.791725635528564 -3.994921922683716 3.077605485916138 -3.994921922683716 C 2.380085468292236 -3.994921922683716 1.764205574989319 -4.236615180969238 1.296565532684326 -4.693881988525391 C 0.9661788940429688 -5.016908645629883 0.572325587272644 -5.599055290222168 0.572325587272644 -6.537841796875 L 0.572325587272644 -16.77374839782715 C 0.572325587272644 -17.53326797485352 0.8305655717849731 -18.19822883605957 1.319125533103943 -18.69672203063965 C 1.813018918037415 -19.20074844360352 2.4666588306427 -19.4671745300293 3.209312200546265 -19.4671745300293 C 3.756698846817017 -19.4671745300293 4.260672092437744 -19.30764198303223 4.707245349884033 -18.99301528930664 C 5.113098621368408 -18.70708847045898 5.451404094696045 -18.30678176879883 5.712856769561768 -17.80313873291016 L 8.287214279174805 -12.96220588684082 L 10.84657573699951 -17.80121803283691 C 11.5596170425415 -19.17794418334961 12.58148097991943 -19.4671745300293 13.31348514556885 -19.4671745300293 C 14.06008529663086 -19.4671745300293 14.71295261383057 -19.19818878173828 15.20147228240967 -18.68930816650391 C 15.22759628295898 -18.6620979309082 15.25304985046387 -18.63438987731934 15.27782249450684 -18.60620498657227 C 15.31848239898682 -18.65049362182617 15.36093425750732 -18.69392395019531 15.40515232086182 -18.73644256591797 C 15.91511249542236 -19.22680282592773 16.53867149353027 -19.48600196838379 17.20839309692383 -19.48600196838379 C 17.93795204162598 -19.48600196838379 18.59616470336914 -19.17148208618164 19.11185836791992 -18.57645606994629 L 19.11637878417969 -18.57125473022461 L 19.12080574035645 -18.56598854064941 L 21.68659591674805 -15.52181434631348 L 24.25240516662598 -18.56598854064941 L 24.25683212280273 -18.57124137878418 L 24.26133918762207 -18.57644271850586 C 24.77701950073242 -19.17148208618164 25.43523216247559 -19.48600196838379 26.1648063659668 -19.48600196838379 C 26.83467292785645 -19.48600196838379 27.46157836914062 -19.22345542907715 27.97773933410645 -18.72674942016602 C 28.50452613830566 -18.21984100341797 28.78297805786133 -17.59005546569824 28.78297805786133 -16.90545463562012 C 28.78297805786133 -16.30032157897949 28.5640983581543 -15.73480224609375 28.13240623474121 -15.22462844848633 L 28.12903213500977 -15.22065544128418 L 28.12563133239746 -15.21670818328857 L 24.41767311096191 -10.92604923248291 L 24.41767311096191 -6.707175254821777 C 24.41767311096191 -5.660628795623779 23.98147201538086 -5.038961887359619 23.61553955078125 -4.701735496520996 C 23.10660552978516 -4.23272180557251 22.46395301818848 -3.994921922683716 21.70541954040527 -3.994921922683716 Z"/><path class="f" d="M 53.61731719970703 11.70645332336426 C 55.21040344238281 11.70645332336426 56.60904693603516 11.28622436523438 57.81327438354492 10.44578170776367 C 58.02651596069336 10.29525375366211 58.1801872253418 10.12903881072998 58.27426147460938 9.947153091430664 C 58.36834716796875 9.765267372131348 58.41539001464844 9.542610168457031 58.41539001464844 9.279181480407715 C 58.41539001464844 8.890324592590332 58.30562973022461 8.561038970947266 58.08610153198242 8.291338920593262 C 57.8665885925293 8.021653175354004 57.60003280639648 7.886795997619629 57.28643035888672 7.886795997619629 C 57.11080169677734 7.886795997619629 56.96028900146484 7.911881923675537 56.83484649658203 7.962067604064941 C 56.70940399169922 8.012239456176758 56.51497268676758 8.106325149536133 56.25154495239258 8.24431037902832 C 55.69961547851562 8.495182037353516 55.24803161621094 8.680210113525391 54.89680099487305 8.799382209777832 C 54.54555892944336 8.918539047241211 54.18178939819336 8.978124618530273 53.80545806884766 8.978124618530273 C 52.68906021118164 8.978124618530273 51.85801696777344 8.642581939697266 51.31235885620117 7.9714674949646 C 50.76668930053711 7.30036735534668 50.49385833740234 6.274896144866943 50.49385833740234 4.895053386688232 C 50.49385833740234 3.527753353118896 50.76668930053711 2.508553266525269 51.31235885620117 1.837453246116638 C 51.85801696777344 1.166353344917297 52.68906021118164 0.8307961821556091 53.80545806884766 0.8307961821556091 C 54.21941757202148 0.8307961821556091 54.62083053588867 0.8872532844543457 55.00968933105469 1.000138998031616 C 55.39854431152344 1.113039016723633 55.81251525878906 1.301196098327637 56.25154495239258 1.564624667167664 C 56.4522590637207 1.690067529678345 56.62786102294922 1.781010389328003 56.77838897705078 1.837453246116638 C 56.92891693115234 1.89391040802002 57.09827423095703 1.922124743461609 57.28643035888672 1.922124743461609 C 57.60003280639648 1.922124743461609 57.8665885925293 1.78728187084198 58.08610153198242 1.517581820487976 C 58.30562973022461 1.247881889343262 58.41539001464844 0.9186104536056519 58.41539001464844 0.5297390222549438 C 58.41539001464844 0.2537818551063538 58.36834716796875 0.02798186615109444 58.27426147460938 -0.1476324200630188 C 58.1801872253418 -0.3232467174530029 58.02651596069336 -0.4863181412220001 57.81327438354492 -0.6368467211723328 C 56.60904693603516 -1.477303862571716 55.21040344238281 -1.897518157958984 53.61731719970703 -1.897518157958984 C 52.28764724731445 -1.897518157958984 51.12418746948242 -1.621546745300293 50.12694549560547 -1.069618105888367 C 49.12970352172852 -0.5176752805709839 48.35824584960938 0.272596150636673 47.81257247924805 1.301196098327637 C 47.26691818237305 2.329810380935669 46.99408721923828 3.527753353118896 46.99408721923828 4.895053386688232 C 46.99408721923828 6.274896144866943 47.26691818237305 7.479124546051025 47.81257247924805 8.507724761962891 C 48.35824584960938 9.536338806152344 49.12970352172852 10.32661056518555 50.12694549560547 10.87855339050293 C 51.12418746948242 11.43048191070557 52.28764724731445 11.70645332336426 53.61731719970703 11.70645332336426 M 33.99224472045898 11.70645332336426 C 35.33444595336914 11.70645332336426 36.50417327880859 11.42733860015869 37.50143051147461 10.86913871765137 C 38.49867248535156 10.3109245300293 39.26698684692383 9.52065372467041 39.80638885498047 8.498324394226074 C 40.34577560424805 7.475981712341309 40.61547470092773 6.274896144866943 40.61547470092773 4.895053386688232 C 40.61547470092773 3.515210390090942 40.34891510009766 2.314124822616577 39.81578826904297 1.291796207427979 C 39.28267288208008 0.2694532871246338 38.51748657226562 -0.5176752805709839 37.52024459838867 -1.069618105888367 C 36.52298736572266 -1.621546745300293 35.34698867797852 -1.897518157958984 33.99224472045898 -1.897518157958984 C 32.63750457763672 -1.897518157958984 31.46150207519531 -1.621546745300293 30.46426010131836 -1.069618105888367 C 29.46700286865234 -0.5176752805709839 28.69868850708008 0.2694532871246338 28.15928840637207 1.291796207427979 C 27.61990356445312 2.314124822616577 27.3502025604248 3.515210390090942 27.3502025604248 4.895053386688232 C 27.3502025604248 6.274896144866943 27.61990356445312 7.475981712341309 28.15928840637207 8.498324394226074 C 28.69868850708008 9.52065372467041 29.46700286865234 10.3109245300293 30.46426010131836 10.86913871765137 C 31.46150207519531 11.42733860015869 32.63750457763672 11.70645332336426 33.99224472045898 11.70645332336426 M 33.99224472045898 0.7555390000343323 C 34.98321533203125 0.7555390000343323 35.76408767700195 1.106767535209656 36.33483123779297 1.809224724769592 C 36.90559005737305 2.511696100234985 37.19095993041992 3.540310382843018 37.19095993041992 4.895053386688232 C 37.19095993041992 6.249810218811035 36.90871810913086 7.281553268432617 36.34424591064453 7.99028205871582 C 35.77975845336914 8.69902515411377 34.99575805664062 9.053396224975586 33.99224472045898 9.053396224975586 C 32.98873138427734 9.053396224975586 32.20473098754883 8.702167510986328 31.64024543762207 7.999696254730225 C 31.07577323913574 7.297238826751709 30.79353141784668 6.262353420257568 30.79353141784668 4.895053386688232 C 30.79353141784668 3.527753353118896 31.07577323913574 2.496010541915894 31.64024543762207 1.799824714660645 C 32.20473098754883 1.103624701499939 32.98873138427734 0.7555390000343323 33.99224472045898 0.7555390000343323 M 7.819231510162354 11.70645332336426 C 9.412317276000977 11.70645332336426 10.810959815979 11.28622436523438 12.01518821716309 10.44578170776367 C 12.22843170166016 10.29525375366211 12.38210296630859 10.12903881072998 12.47617435455322 9.947153091430664 C 12.5702600479126 9.765267372131348 12.61730289459229 9.542610168457031 12.61730289459229 9.279181480407715 C 12.61730289459229 8.890324592590332 12.50754547119141 8.561038970947266 12.28801727294922 8.291338920593262 C 12.06850242614746 8.021653175354004 11.80194568634033 7.886795997619629 11.4883451461792 7.886795997619629 C 11.31273174285889 7.886795997619629 11.16220283508301 7.911881923675537 11.03675937652588 7.962067604064941 C 10.91131687164307 8.012239456176758 10.71688842773438 8.106325149536133 10.45345973968506 8.24431037902832 C 9.901531219482422 8.495182037353516 9.449945449829102 8.680210113525391 9.098716735839844 8.799382209777832 C 8.74747371673584 8.918539047241211 8.383702278137207 8.978124618530273 8.007388114929199 8.978124618530273 C 6.890974044799805 8.978124618530273 6.05993127822876 8.642581939697266 5.514274120330811 7.9714674949646 C 4.968602657318115 7.30036735534668 4.695774078369141 6.274896144866943 4.695774078369141 4.895053386688232 C 4.695774078369141 3.527753353118896 4.968602657318115 2.508553266525269 5.514274120330811 1.837453246116638 C 6.05993127822876 1.166353344917297 6.890974044799805 0.8307961821556091 8.007388114929199 0.8307961821556091 C 8.421345710754395 0.8307961821556091 8.822745323181152 0.8872532844543457 9.211603164672852 1.000138998031616 C 9.60047435760498 1.113039016723633 10.01443099975586 1.301196098327637 10.45345973968506 1.564624667167664 C 10.65415954589844 1.690067529678345 10.82978820800781 1.781010389328003 10.98031711578369 1.837453246116638 C 11.13083171844482 1.89391040802002 11.30017375946045 1.922124743461609 11.4883451461792 1.922124743461609 C 11.80194568634033 1.922124743461609 12.06850242614746 1.78728187084198 12.28801727294922 1.517581820487976 C 12.50754547119141 1.247881889343262 12.61730289459229 0.9186104536056519 12.61730289459229 0.5297390222549438 C 12.61730289459229 0.2537818551063538 12.5702600479126 0.02798186615109444 12.47617435455322 -0.1476324200630188 C 12.38210296630859 -0.3232467174530029 12.22843170166016 -0.4863181412220001 12.01518821716309 -0.6368467211723328 C 10.810959815979 -1.477303862571716 9.412317276000977 -1.897518157958984 7.819231510162354 -1.897518157958984 C 6.489559650421143 -1.897518157958984 5.326102733612061 -1.621546745300293 4.328859806060791 -1.069618105888367 C 3.331616878509521 -0.5176752805709839 2.560159921646118 0.272596150636673 2.014502763748169 1.301196098327637 C 1.468831300735474 2.329810380935669 1.196002721786499 3.527753353118896 1.196002721786499 4.895053386688232 C 1.196002721786499 6.274896144866943 1.468831300735474 7.479124546051025 2.014502763748169 8.507724761962891 C 2.560159921646118 9.536338806152344 3.331616878509521 10.32661056518555 4.328859806060791 10.87855339050293 C 5.326102733612061 11.43048191070557 6.489559650421143 11.70645332336426 7.819231510162354 11.70645332336426 M 43.77656173706055 11.64999580383301 C 44.31594467163086 11.64999580383301 44.74244689941406 11.49633884429932 45.05604553222656 11.18901062011719 C 45.36964416503906 10.88168144226074 45.52644729614258 10.46459579467773 45.52644729614258 9.937739372253418 L 45.52644729614258 -0.1288181394338608 C 45.52644729614258 -0.643118143081665 45.36964416503906 -1.053932428359985 45.05604553222656 -1.361261010169983 C 44.74244689941406 -1.66858959197998 44.31594467163086 -1.822260975837708 43.77656173706055 -1.822260975837708 C 43.24970245361328 -1.822260975837708 42.83261871337891 -1.66858959197998 42.52528762817383 -1.361261010169983 C 42.21797561645508 -1.053932428359985 42.06430435180664 -0.643118143081665 42.06430435180664 -0.1288181394338608 L 42.06430435180664 9.937739372253418 C 42.06430435180664 10.46459579467773 42.21797561645508 10.88168144226074 42.52528762817383 11.18901062011719 C 42.83261871337891 11.49633884429932 43.24970245361328 11.64999580383301 43.77656173706055 11.64999580383301 M 24.18911743164062 11.64999580383301 C 24.70343208312988 11.64999580383301 25.1142463684082 11.49319648742676 25.42157363891602 11.17959594726562 C 25.72890281677246 10.86599636077881 25.88256072998047 10.45205307006836 25.88256072998047 9.937739372253418 L 25.88256072998047 -0.1288181394338608 C 25.88256072998047 -0.643118143081665 25.72890281677246 -1.053932428359985 25.42157363891602 -1.361261010169983 C 25.1142463684082 -1.66858959197998 24.70343208312988 -1.822260975837708 24.18911743164062 -1.822260975837708 C 23.6748161315918 -1.822260975837708 23.26400184631348 -1.66858959197998 22.95667457580566 -1.361261010169983 C 22.64934539794922 -1.053932428359985 22.49568748474121 -0.643118143081665 22.49568748474121 -0.1288181394338608 L 22.49568748474121 3.427410364151001 L 17.07668876647949 3.427410364151001 L 17.07668876647949 -0.1288181394338608 C 17.07668876647949 -0.643118143081665 16.92303085327148 -1.053932428359985 16.61570358276367 -1.361261010169983 C 16.30835914611816 -1.66858959197998 15.89754581451416 -1.822260975837708 15.38324546813965 -1.822260975837708 C 14.86894512176514 -1.822260975837708 14.45813083648682 -1.66858959197998 14.15080261230469 -1.361261010169983 C 13.84347438812256 -1.053932428359985 13.68980312347412 -0.643118143081665 13.68980312347412 -0.1288181394338608 L 13.68980312347412 9.937739372253418 C 13.68980312347412 10.46459579467773 13.84347438812256 10.88168144226074 14.15080261230469 11.18901062011719 C 14.45813083648682 11.49633884429932 14.86894512176514 11.64999580383301 15.38324546813965 11.64999580383301 C 15.89754581451416 11.64999580383301 16.30835914611816 11.49319648742676 16.61570358276367 11.17959594726562 C 16.92303085327148 10.86599636077881 17.07668876647949 10.45205307006836 17.07668876647949 9.937739372253418 L 17.07668876647949 6.174539089202881 L 22.49568748474121 6.174539089202881 L 22.49568748474121 9.937739372253418 C 22.49568748474121 10.46459579467773 22.64934539794922 10.88168144226074 22.95667457580566 11.18901062011719 C 23.26400184631348 11.49633884429932 23.6748161315918 11.64999580383301 24.18911743164062 11.64999580383301 M 67.59757232666016 11.53711032867432 C 68.13697052001953 11.53711032867432 68.54464721679688 11.42421054840088 68.82061767578125 11.19841003417969 C 69.09658813476562 10.97262477874756 69.23457336425781 10.64648151397705 69.23457336425781 10.2199821472168 C 69.23457336425781 9.316824913024902 68.68890380859375 8.865239143371582 67.59757232666016 8.865239143371582 L 62.85596084594727 8.865239143371582 L 62.85596084594727 6.118096351623535 L 67.22126007080078 6.118096351623535 C 67.76064300537109 6.118096351623535 68.1683349609375 6.005196094512939 68.44430541992188 5.779410362243652 C 68.72027587890625 5.553610324859619 68.85824584960938 5.22746753692627 68.85824584960938 4.800981998443604 C 68.85824584960938 3.910353183746338 68.31259155273438 3.465039014816284 67.22126007080078 3.465039014816284 L 62.85596084594727 3.465039014816284 L 62.85596084594727 0.943696141242981 L 67.59757232666016 0.943696141242981 C 68.68890380859375 0.943696141242981 69.23457336425781 0.4921104311943054 69.23457336425781 -0.4110609889030457 C 69.23457336425781 -0.837546706199646 69.09658813476562 -1.163703799247742 68.82061767578125 -1.389489531517029 C 68.54464721679688 -1.615275263786316 68.13697052001953 -1.728175282478333 67.59757232666016 -1.728175282478333 L 61.08726119995117 -1.728175282478333 C 60.57294464111328 -1.728175282478333 60.17781829833984 -1.590189576148987 59.9018440246582 -1.314232468605042 C 59.62588882446289 -1.038260936737061 59.4879035949707 -0.643118143081665 59.4879035949707 -0.1288181394338608 L 59.4879035949707 9.937739372253418 C 59.4879035949707 10.45205307006836 59.62588882446289 10.84718227386475 59.9018440246582 11.12315368652344 C 60.17781829833984 11.39912509918213 60.57294464111328 11.53711032867432 61.08726119995117 11.53711032867432 L 67.59757232666016 11.53711032867432 M 56.96656036376953 -4.938475131988525 C 57.40560150146484 -4.938475131988525 57.79131698608398 -5.073318004608154 58.12372970581055 -5.343018054962158 C 58.45616149902344 -5.612718105316162 58.62236022949219 -5.948275089263916 58.62236022949219 -6.349675178527832 C 58.62236022949219 -6.650732517242432 58.50947570800781 -6.970603942871094 58.28367233276367 -7.309289455413818 L 57.11708831787109 -8.983918190002441 C 56.81603240966797 -9.410418510437012 56.5118293762207 -9.730289459228516 56.20450210571289 -9.94353199005127 C 55.89719009399414 -10.15677547454834 55.53652954101562 -10.29476070404053 55.12258911132812 -10.35748958587646 C 56.12610244750977 -10.59581851959229 56.90383148193359 -11.06308937072754 57.45577239990234 -11.75927543640137 C 58.0077018737793 -12.45547485351562 58.28367233276367 -13.30533218383789 58.28367233276367 -14.30884647369385 C 58.28367233276367 -15.62596130371094 57.87913131713867 -16.63261795043945 57.07004547119141 -17.32881736755371 C 56.26094436645508 -18.02500343322754 55.05360412597656 -18.37310409545898 53.44797515869141 -18.37310409545898 L 48.72515869140625 -18.37310409545898 C 48.21084594726562 -18.37310409545898 47.81571578979492 -18.2351188659668 47.53974533081055 -17.95914649963379 C 47.26379013061523 -17.68318939208984 47.12580108642578 -17.28804588317871 47.12580108642578 -16.77374649047852 L 47.12580108642578 -6.707175254821777 C 47.12580108642578 -6.180332183837891 47.27946090698242 -5.763246536254883 47.58678817749023 -5.455918312072754 C 47.89411544799805 -5.148589611053467 48.31120300292969 -4.994932651519775 48.83804702758789 -4.994932651519775 C 49.36490249633789 -4.994932651519775 49.77884674072266 -5.148589611053467 50.07990264892578 -5.455918312072754 C 50.38095855712891 -5.763246536254883 50.53149032592773 -6.180332183837891 50.53149032592773 -6.707175254821777 L 50.53149032592773 -10.07524681091309 L 51.75453186035156 -10.07524681091309 C 52.01795959472656 -10.07524681091309 52.24687576293945 -10.01566123962402 52.44131851196289 -9.896489143371582 C 52.63574600219727 -9.777332305908203 52.82075881958008 -9.592304229736328 52.99638748168945 -9.341418266296387 L 55.44245910644531 -5.766375064849854 C 55.630615234375 -5.490417957305908 55.85641860961914 -5.283432483673096 56.11984634399414 -5.14544677734375 C 56.38325881958008 -5.00747537612915 56.66550445556641 -4.938475131988525 56.96656036376953 -4.938475131988525 M 50.49385833740234 -15.75767517089844 L 52.90230178833008 -15.75767517089844 C 53.66748809814453 -15.75767517089844 54.21628952026367 -15.63537502288818 54.54870223999023 -15.39076137542725 C 54.88111877441406 -15.14616107940674 55.04733276367188 -14.74788951873779 55.04733276367188 -14.19594669342041 C 55.04733276367188 -13.65656089782715 54.88111877441406 -13.26768970489502 54.54870223999023 -13.0293607711792 C 54.21628952026367 -12.79101848602295 53.66748809814453 -12.67186069488525 52.90230178833008 -12.67186069488525 L 50.49385833740234 -12.67186069488525 L 50.49385833740234 -15.75767517089844 M 95.89680480957031 -4.994932651519775 C 96.348388671875 -4.994932651519775 96.71217346191406 -5.132904052734375 96.98812866210938 -5.408875465393066 C 97.26409149169922 -5.684846878051758 97.40209197998047 -6.061161041259766 97.40209197998047 -6.537832260131836 L 97.40209197998047 -16.77374649047852 C 97.40209197998047 -17.27550315856934 97.25155639648438 -17.68318939208984 96.95048522949219 -17.99677467346191 C 96.64944458007812 -18.31037521362305 96.26058959960938 -18.4671745300293 95.78390502929688 -18.4671745300293 C 95.11908721923828 -18.4671745300293 94.59224700927734 -18.09086036682129 94.20337677001953 -17.33821868896484 L 90.76004791259766 -10.82788944244385 L 87.29790496826172 -17.33821868896484 C 87.10974884033203 -17.70200347900391 86.87767791748047 -17.98110389709473 86.60171508789062 -18.17553329467773 C 86.32574462890625 -18.36996078491211 86.01841735839844 -18.4671745300293 85.67973327636719 -18.4671745300293 C 85.20305633544922 -18.4671745300293 84.81105804443359 -18.31037521362305 84.50373077392578 -17.99677467346191 C 84.19640350341797 -17.68318939208984 84.04274749755859 -17.27550315856934 84.04274749755859 -16.77374649047852 L 84.04274749755859 -6.537832260131836 C 84.04274749755859 -6.061161041259766 84.18386077880859 -5.684846878051758 84.46610260009766 -5.408875465393066 C 84.74834442138672 -5.132904052734375 85.10897064208984 -4.994932651519775 85.54801940917969 -4.994932651519775 C 85.99960327148438 -4.994932651519775 86.36651611328125 -5.136046886444092 86.64874267578125 -5.418289661407471 C 86.93099212646484 -5.700518131256104 87.07212066650391 -6.073703765869141 87.07212066650391 -6.537832260131836 L 87.07212066650391 -11.95684623718262 L 89.19833374023438 -8.118374824523926 C 89.41157531738281 -7.716975212097168 89.63735961914062 -7.431603908538818 89.87570190429688 -7.262246608734131 C 90.11402893066406 -7.092903614044189 90.39626312255859 -7.008232593536377 90.72241973876953 -7.008232593536377 C 91.04856109619141 -7.008232593536377 91.33080291748047 -7.092903614044189 91.56912994384766 -7.262246608734131 C 91.80745697021484 -7.431603908538818 92.03325653076172 -7.716975212097168 92.24650573730469 -8.118374824523926 L 94.39153289794922 -12.06974697113037 L 94.39153289794922 -6.537832260131836 C 94.39153289794922 -6.061161041259766 94.53266143798828 -5.684846878051758 94.81488800048828 -5.408875465393066 C 95.09712982177734 -5.132904052734375 95.45775604248047 -4.994932651519775 95.89680480957031 -4.994932651519775 M 21.70541763305664 -4.994932651519775 C 22.20717430114746 -4.994932651519775 22.61798858642578 -5.142318248748779 22.9378604888916 -5.437103748321533 C 23.25773048400879 -5.731889724731445 23.41767501831055 -6.155246734619141 23.41767501831055 -6.707175254821777 L 23.41767501831055 -11.29828929901123 L 27.36903190612793 -15.87057495117188 C 27.64498901367188 -16.19671821594238 27.78297424316406 -16.54167556762695 27.78297424316406 -16.90546035766602 C 27.78297424316406 -17.31940460205078 27.61676025390625 -17.68631744384766 27.28434562683105 -18.00618934631348 C 26.95194625854492 -18.3260612487793 26.57876014709473 -18.48600387573242 26.16480255126953 -18.48600387573242 C 25.72575950622559 -18.48600387573242 25.34317398071289 -18.2978458404541 25.01703071594238 -17.92151832580566 L 21.68660354614258 -13.97016143798828 L 18.35617446899414 -17.92151832580566 C 18.03003120422363 -18.2978458404541 17.64743041992188 -18.48600387573242 17.20840263366699 -18.48600387573242 C 16.7944450378418 -18.48600387573242 16.42440223693848 -18.32920455932617 16.09825897216797 -18.01560401916504 C 15.77211666107178 -17.70200347900391 15.60903167724609 -17.33821868896484 15.60903167724609 -16.92427444458008 C 15.60903167724609 -16.54794692993164 15.75328826904297 -16.19671821594238 16.04180335998535 -15.87057495117188 L 19.95553207397461 -11.29828929901123 L 19.95553207397461 -6.707175254821777 C 19.95553207397461 -6.155246734619141 20.11860275268555 -5.731889724731445 20.44474601745605 -5.437103748321533 C 20.77088928222656 -5.142318248748779 21.19111633300781 -4.994932651519775 21.70541763305664 -4.994932651519775 M 13.42638874053955 -4.994932651519775 C 13.87797451019287 -4.994932651519775 14.2417459487915 -5.132904052734375 14.5177173614502 -5.408875465393066 C 14.79368877410889 -5.684846878051758 14.93165969848633 -6.061161041259766 14.93165969848633 -6.537832260131836 L 14.93165969848633 -16.77374649047852 C 14.93165969848633 -17.27550315856934 14.78113174438477 -17.68318939208984 14.48008823394775 -17.99677467346191 C 14.17903137207031 -18.31037521362305 13.79016017913818 -18.4671745300293 13.3134880065918 -18.4671745300293 C 12.64865970611572 -18.4671745300293 12.12181663513184 -18.09086036682129 11.73294544219971 -17.33821868896484 L 8.289630889892578 -10.82788944244385 L 4.827488422393799 -17.33821868896484 C 4.639331340789795 -17.70200347900391 4.407259941101074 -17.98110389709473 4.131288528442383 -18.17553329467773 C 3.855331182479858 -18.36996078491211 3.54800271987915 -18.4671745300293 3.209316968917847 -18.4671745300293 C 2.732645511627197 -18.4671745300293 2.340645551681519 -18.31037521362305 2.033317089080811 -17.99677467346191 C 1.725988388061523 -17.68318939208984 1.572317004203796 -17.27550315856934 1.572317004203796 -16.77374649047852 L 1.572317004203796 -6.537832260131836 C 1.572317004203796 -6.061161041259766 1.713445544242859 -5.684846878051758 1.995674133300781 -5.408875465393066 C 2.27791690826416 -5.132904052734375 2.638559818267822 -4.994932651519775 3.077602624893188 -4.994932651519775 C 3.529188394546509 -4.994932651519775 3.896088361740112 -5.136046886444092 4.17833137512207 -5.418289661407471 C 4.460574150085449 -5.700518131256104 4.601688385009766 -6.073703765869141 4.601688385009766 -6.537832260131836 L 4.601688385009766 -11.95684623718262 L 6.727902889251709 -8.118374824523926 C 6.941145420074463 -7.716975212097168 7.16693115234375 -7.431603908538818 7.405273914337158 -7.262246608734131 C 7.643617153167725 -7.092903614044189 7.925845623016357 -7.008232593536377 8.251988410949707 -7.008232593536377 C 8.578131675720215 -7.008232593536377 8.860374450683594 -7.092903614044189 9.098716735839844 -7.262246608734131 C 9.337045669555664 -7.431603908538818 9.562845230102539 -7.716975212097168 9.776088714599609 -8.118374824523926 L 11.92111682891846 -12.06974697113037 L 11.92111682891846 -6.537832260131836 C 11.92111682891846 -6.061161041259766 12.06223106384277 -5.684846878051758 12.34447383880615 -5.408875465393066 C 12.62670230865479 -5.132904052734375 12.98734569549561 -4.994932651519775 13.42638874053955 -4.994932651519775 M 81.52140045166016 -5.051375389099121 C 81.94789123535156 -5.051375389099121 82.32734680175781 -5.195632457733154 82.65977478027344 -5.484146595001221 C 82.9921875 -5.772646903991699 83.15840148925781 -6.123889446258545 83.15840148925781 -6.537832260131836 C 83.15840148925781 -6.763632297515869 83.10194396972656 -6.995689392089844 82.98904418945312 -7.23403263092041 L 78.02162933349609 -17.43230438232422 C 77.85855865478516 -17.7709903717041 77.61396026611328 -18.03127479553223 77.28780364990234 -18.21316146850586 C 76.96166229248047 -18.39504623413086 76.61042785644531 -18.48600387573242 76.23410034179688 -18.48600387573242 C 75.84524536132812 -18.48600387573242 75.49087524414062 -18.39504623413086 75.1710205078125 -18.21316146850586 C 74.85114288330078 -18.03127479553223 74.60965728759766 -17.7709903717041 74.44658660888672 -17.43230438232422 L 69.47917175292969 -7.23403263092041 C 69.46013641357422 -7.193838119506836 69.44271087646484 -7.153839111328125 69.4268798828125 -7.114002704620361 C 69.52445220947266 -6.924696445465088 69.5732421875 -6.695000648498535 69.5732421875 -6.424946784973145 C 69.5732421875 -6.22304630279541 69.54232025146484 -6.043633460998535 69.48047637939453 -5.886711120605469 C 69.5648193359375 -5.741151809692383 69.68041229248047 -5.606966972351074 69.8272705078125 -5.484146595001221 C 70.17223358154297 -5.195632457733154 70.55796051025391 -5.051375389099121 70.98444366455078 -5.051375389099121 C 71.27295684814453 -5.051375389099121 71.53952026367188 -5.126632213592529 71.78413391113281 -5.277161121368408 C 72.02873229980469 -5.427689552307129 72.22003173828125 -5.653489589691162 72.3580322265625 -5.954546928405762 L 73.22354888916016 -7.854960918426514 L 79.31993103027344 -7.854960918426514 L 80.16664886474609 -5.954546928405762 C 80.30463409423828 -5.653489589691162 80.49279022216797 -5.427689552307129 80.73113250732422 -5.277161121368408 C 80.96947479248047 -5.126632213592529 81.23288726806641 -5.051375389099121 81.52140045166016 -5.051375389099121 M 76.27174377441406 -14.64753246307373 L 78.15332794189453 -10.45156097412109 L 74.39012908935547 -10.45156097412109 L 76.27174377441406 -14.64753246307373 M 67.93625640869141 -5.107818126678467 C 68.47566223144531 -5.107818126678467 68.88333129882812 -5.220717906951904 69.15928649902344 -5.446503639221191 C 69.30461883544922 -5.565412521362305 69.41168212890625 -5.712146282196045 69.48047637939453 -5.886711120605469 C 69.36670684814453 -6.083065509796143 69.309814453125 -6.300113201141357 69.309814453125 -6.537832260131836 C 69.309814453125 -6.725553512573242 69.34884643554688 -6.917615413665771 69.4268798828125 -7.114002704620361 C 69.19813537597656 -7.557802677154541 68.70127105712891 -7.779689788818359 67.93625640869141 -7.779689788818359 L 63.19462966918945 -7.779689788818359 L 63.19462966918945 -10.52683258056641 L 67.55994415283203 -10.52683258056641 C 68.09933471679688 -10.52683258056641 68.50701904296875 -10.63973236083984 68.78298950195312 -10.86551856994629 C 69.0589599609375 -11.09130382537842 69.19692993164062 -11.41746139526367 69.19692993164062 -11.84394645690918 C 69.19692993164062 -12.73457527160645 68.65127563476562 -13.17988967895508 67.55994415283203 -13.17988967895508 L 63.19462966918945 -13.17988967895508 L 63.19462966918945 -15.70123195648193 L 67.93625640869141 -15.70123195648193 C 69.027587890625 -15.70123195648193 69.5732421875 -16.15281867980957 69.5732421875 -17.05599021911621 C 69.5732421875 -17.48247528076172 69.43525695800781 -17.80863189697266 69.15928649902344 -18.0344181060791 C 68.88333129882812 -18.26020431518555 68.47566223144531 -18.37310409545898 67.93625640869141 -18.37310409545898 L 61.42593002319336 -18.37310409545898 C 60.9116325378418 -18.37310409545898 60.51650238037109 -18.2351188659668 60.24053192138672 -17.95914649963379 C 59.96456146240234 -17.68318939208984 59.82657241821289 -17.28804588317871 59.82657241821289 -16.77374649047852 L 59.82657241821289 -6.707175254821777 C 59.82657241821289 -6.192875385284424 59.96456146240234 -5.797746658325195 60.24053192138672 -5.521775245666504 C 60.51650238037109 -5.245803833007812 60.9116325378418 -5.107818126678467 61.42593002319336 -5.107818126678467 L 67.93625640869141 -5.107818126678467 M 38.58334732055664 -5.107818126678467 C 40.06352996826172 -5.107818126678467 41.3336181640625 -5.371246814727783 42.39357376098633 -5.898089408874512 C 43.45354461669922 -6.424946784973145 44.26263046264648 -7.186989784240723 44.82084655761719 -8.184232711791992 C 45.37904739379883 -9.181489944458008 45.65816116333008 -10.37003231048584 45.65816116333008 -11.74987506866455 C 45.65816116333008 -13.11716079711914 45.37591552734375 -14.29630374908447 44.81143188476562 -15.28727531433105 C 44.2469596862793 -16.27826118469238 43.43473052978516 -17.04030418395996 42.37475967407227 -17.57341766357422 C 41.31480407714844 -18.10654640197754 40.05098724365234 -18.37310409545898 38.58334732055664 -18.37310409545898 L 34.78251647949219 -18.37310409545898 C 34.26821517944336 -18.37310409545898 33.87307357788086 -18.2351188659668 33.59711837768555 -17.95914649963379 C 33.32114410400391 -17.68318939208984 33.18315887451172 -17.28804588317871 33.18315887451172 -16.77374649047852 L 33.18315887451172 -6.707175254821777 C 33.18315887451172 -6.192875385284424 33.32114410400391 -5.797746658325195 33.59711837768555 -5.521775245666504 C 33.87307357788086 -5.245803833007812 34.26821517944336 -5.107818126678467 34.78251647949219 -5.107818126678467 L 38.58334732055664 -5.107818126678467 M 36.64530181884766 -15.5883321762085 L 38.33872985839844 -15.5883321762085 C 39.63077545166016 -15.5883321762085 40.59978866577148 -15.27473258972168 41.24580383300781 -14.64753246307373 C 41.89181518554688 -14.02033233642578 42.2148323059082 -13.05444717407227 42.2148323059082 -11.74987506866455 C 42.2148323059082 -10.44528961181641 41.89181518554688 -9.476275444030762 41.24580383300781 -8.842803955078125 C 40.59978866577148 -8.209332466125488 39.63077545166016 -7.892589569091797 38.33872985839844 -7.892589569091797 L 36.64530181884766 -7.892589569091797 L 36.64530181884766 -15.5883321762085 M 53.61731719970703 13.70645332336426 C 51.95111846923828 13.70645332336426 50.45094680786133 13.34375286102295 49.15847396850586 12.62842464447021 C 48.46912384033203 12.2468957901001 47.85690307617188 11.77752304077148 47.32575225830078 11.22434616088867 C 47.11299133300781 11.85968494415283 46.76557540893555 12.31395244598389 46.45590209960938 12.61743927001953 C 45.97524642944336 13.08848190307617 45.12023162841797 13.64999580383301 43.77656173706055 13.64999580383301 C 42.43867492675781 13.64999580383301 41.58860397338867 13.08075332641602 41.1110725402832 12.6032247543335 C 40.81246566772461 12.30459690093994 40.4780158996582 11.86034870147705 40.2692985534668 11.24223709106445 C 39.74914169311523 11.77921485900879 39.15094375610352 12.23781585693359 38.47831726074219 12.61432456970215 C 37.18363189697266 13.33901023864746 35.67430114746094 13.70645332336426 33.99224472045898 13.70645332336426 C 32.29770278930664 13.70645332336426 30.78204536437988 13.33901023864746 29.48738861083984 12.61433887481689 C 28.80750274658203 12.2337703704834 28.20357513427734 11.76924324035645 27.67951011657715 11.22477054595947 C 27.50782585144043 11.73532104492188 27.22906494140625 12.19265556335449 26.85000228881836 12.57945346832275 C 26.16364479064941 13.27981090545654 25.24353218078613 13.64999580383301 24.18911743164062 13.64999580383301 C 22.86680221557617 13.64999580383301 22.01998901367188 13.08075332641602 21.54245948791504 12.6032247543335 C 21.06493186950684 12.12569618225098 20.49568748474121 11.27562427520752 20.49568748474121 9.937739372253418 L 20.49568748474121 8.174538612365723 L 19.07668876647949 8.174538612365723 L 19.07668876647949 9.937739372253418 C 19.07668876647949 10.9766674041748 18.71963119506836 11.89016723632812 18.04413032531738 12.57945346832275 C 17.35773086547852 13.27982425689697 16.43763160705566 13.64999580383301 15.38324546813965 13.64999580383301 C 14.06093120574951 13.64999580383301 13.2141170501709 13.08075332641602 12.73658847808838 12.6032247543335 C 12.68942832946777 12.55606460571289 12.6413516998291 12.50524425506592 12.59303951263428 12.45070743560791 C 11.18395328521729 13.28441905975342 9.581329345703125 13.70645332336426 7.819231510162354 13.70645332336426 C 6.153031349182129 13.70645332336426 4.652859687805176 13.34375286102295 3.360388517379761 12.62842464447021 C 2.022816896438599 11.88812446594238 0.9755741357803345 10.81705284118652 0.2477027028799057 9.444967269897461 C -0.4501544237136841 8.129510879516602 -0.803997278213501 6.598681926727295 -0.803997278213501 4.895053386688232 C -0.803997278213501 3.203924655914307 -0.4501544237136841 1.679439067840576 0.2477169930934906 0.3639247119426727 C 0.9755741357803345 -1.008132457733154 2.022831201553345 -2.079189538955688 3.360359907150269 -2.819475173950195 C 3.522632360458374 -2.909286022186279 3.688276529312134 -2.993582963943481 3.857013463973999 -3.072256803512573 C 3.607091903686523 -3.020960807800293 3.346665382385254 -2.994932413101196 3.077602624893188 -2.994932413101196 C 2.113388538360596 -2.994932413101196 1.255759835243225 -3.335175275802612 0.5974313020706177 -3.978861093521118 C 0.1297598481178284 -4.436175346374512 -0.4276829957962036 -5.251303672790527 -0.4276829957962036 -6.537832260131836 L -0.4276829957962036 -16.77374649047852 C -0.4276829957962036 -17.80039024353027 -0.07061158120632172 -18.70737457275391 0.6049312949180603 -19.39666175842285 C 1.291245579719543 -20.09698867797852 2.191831350326538 -20.4671745300293 3.209316968917847 -20.4671745300293 C 3.956316947937012 -20.4671745300293 4.673460006713867 -20.24008941650391 5.283216953277588 -19.81048965454102 C 5.820255279541016 -19.43212699890137 6.262747764587402 -18.91302490234375 6.598472595214844 -18.26758003234863 L 8.284812927246094 -15.09652900695801 L 9.960765838623047 -18.26527976989746 C 10.95481777191162 -20.18071556091309 12.48754405975342 -20.4671745300293 13.3134880065918 -20.4671745300293 C 14.0433177947998 -20.4671745300293 14.7107629776001 -20.27707290649414 15.28068447113037 -19.91147613525391 C 15.85895252227783 -20.28923797607422 16.51430130004883 -20.48600387573242 17.20840263366699 -20.48600387573242 C 18.22201728820801 -20.48600387573242 19.1663875579834 -20.04043197631836 19.86757469177246 -19.23136138916016 L 19.87657356262207 -19.22097587585449 L 19.88543128967285 -19.2104606628418 L 21.68660354614258 -17.07347679138184 L 23.48777389526367 -19.2104606628418 L 23.49663162231445 -19.22097587585449 L 23.50563049316406 -19.23136138916016 C 24.20681762695312 -20.04043197631836 25.15118789672852 -20.48600387573242 26.16480255126953 -20.48600387573242 C 27.09831619262695 -20.48600387573242 27.96500205993652 -20.12683296203613 28.67114639282227 -19.44730377197266 C 29.39850234985352 -18.74738883972168 29.78297424316406 -17.86841773986816 29.78297424316406 -16.90546035766602 C 29.78297424316406 -16.06921768188477 29.4762020111084 -15.26464653015137 28.89583206176758 -14.5787181854248 L 28.88908767700195 -14.57074642181396 L 28.88225936889648 -14.56284713745117 L 25.41767501831055 -10.55382537841797 L 25.41767501831055 -6.707175254821777 C 25.41767501831055 -5.298375129699707 24.80618858337402 -4.439132213592529 24.29323196411133 -3.966403961181641 C 24.23893356323242 -3.916364192962646 24.18330955505371 -3.868139982223511 24.12651443481445 -3.821832656860352 C 24.14726066589355 -3.822116851806641 24.16813278198242 -3.822261095046997 24.18911743164062 -3.822261095046997 C 25.51143074035645 -3.822261095046997 26.35824584960938 -3.253018140792847 26.83578872680664 -2.775475263595581 C 27.13319396972656 -2.478069067001343 27.4661865234375 -2.037389755249023 27.67506980895996 -1.427845358848572 C 28.20234298706055 -1.975034356117249 28.81052207946777 -2.440224170684814 29.49577331542969 -2.819489479064941 C 30.40510559082031 -3.322760581970215 31.42340850830078 -3.651471853256226 32.53623962402344 -3.802143096923828 C 32.40000915527344 -3.903743505477905 32.28268051147461 -4.007776260375977 32.182861328125 -4.107604026794434 C 31.72683143615723 -4.563646793365479 31.18316078186035 -5.384860992431641 31.18316078186035 -6.707175254821777 L 31.18316078186035 -16.77374649047852 C 31.18316078186035 -18.09610366821289 31.72684478759766 -18.91733169555664 32.18294525146484 -19.37340354919434 C 32.63893127441406 -19.82941818237305 33.46015930175781 -20.37310409545898 34.78251647949219 -20.37310409545898 L 38.58334732055664 -20.37310409545898 C 40.35910415649414 -20.37310409545898 41.93707275390625 -20.03228950500488 43.27342987060547 -19.36014747619629 C 44.03521728515625 -18.97700119018555 44.70650863647461 -18.49911499023438 45.28269577026367 -17.93081474304199 C 45.47740173339844 -18.60142707824707 45.82100296020508 -19.0688304901123 46.12553024291992 -19.37336158752441 C 46.58161544799805 -19.82943153381348 47.40284729003906 -20.37310409545898 48.72515869140625 -20.37310409545898 L 53.44797515869141 -20.37310409545898 C 55.53844451904297 -20.37310409545898 57.19597244262695 -19.85893249511719 58.37451553344727 -18.8448600769043 C 58.37972640991211 -18.84037780761719 58.38497161865234 -18.83584785461426 58.39019012451172 -18.83131790161133 C 58.53119277954102 -19.05088233947754 58.68307876586914 -19.23012924194336 58.82635879516602 -19.37340354919434 C 59.28240203857422 -19.82943153381348 60.10361862182617 -20.37310409545898 61.42593002319336 -20.37310409545898 L 67.93625640869141 -20.37310409545898 C 68.94686126708984 -20.37310409545898 69.78446197509766 -20.10704612731934 70.42577362060547 -19.58233261108398 C 71.16571807861328 -18.9769458770752 71.5732421875 -18.07973289489746 71.5732421875 -17.05599021911621 C 71.5732421875 -16.01243209838867 71.17047119140625 -15.10438919067383 70.43914794921875 -14.49913215637207 C 70.35198974609375 -14.42700576782227 70.26112365722656 -14.35975170135498 70.16651916503906 -14.29733180999756 C 70.29346466064453 -14.18281745910645 70.40944671630859 -14.05869674682617 70.51406097412109 -13.92593002319336 L 72.64698028564453 -18.30488395690918 C 72.98426818847656 -19.00288963317871 73.51512145996094 -19.57230949401855 74.18241882324219 -19.95174598693848 C 74.80583190917969 -20.30624580383301 75.49613189697266 -20.48600387573242 76.23410034179688 -20.48600387573242 C 76.95368957519531 -20.48600387573242 77.63594818115234 -20.30899047851562 78.26193237304688 -19.95989036560059 C 78.94219207763672 -19.58053779602051 79.48130035400391 -19.00831604003906 79.82122039794922 -18.3049373626709 L 82.04274749755859 -13.74406242370605 L 82.04274749755859 -16.77374649047852 C 82.04274749755859 -17.80039024353027 82.39981842041016 -18.70738983154297 83.07534790039062 -19.39666175842285 C 83.76165771484375 -20.09698867797852 84.66224670410156 -20.4671745300293 85.67973327636719 -20.4671745300293 C 86.42670440673828 -20.4671745300293 87.14384460449219 -20.24010467529297 87.75360107421875 -19.81051826477051 C 88.29069519042969 -19.43209838867188 88.73317718505859 -18.91300964355469 89.06888580322266 -18.26758003234863 L 90.75523376464844 -15.09652233123779 L 92.43119049072266 -18.2652702331543 C 93.42523956298828 -20.18070602416992 94.95796203613281 -20.4671745300293 95.78390502929688 -20.4671745300293 C 96.80935668945312 -20.4671745300293 97.71167755126953 -20.09186172485352 98.39328765869141 -19.38180351257324 C 99.05321502685547 -18.6944465637207 99.40209197998047 -17.79256057739258 99.40209197998047 -16.77374649047852 L 99.40209197998047 -6.537832260131836 C 99.40209197998047 -5.262217998504639 98.85844421386719 -4.450789451599121 98.40238952636719 -3.994703769683838 C 97.74835968017578 -3.340646743774414 96.88194274902344 -2.994932413101196 95.89680480957031 -2.994932413101196 C 94.93258666992188 -2.994932413101196 94.07497406005859 -3.335175275802612 93.41664886474609 -3.978861093521118 C 93.09001159667969 -4.298260688781738 92.71957397460938 -4.792244911193848 92.52586364746094 -5.499424457550049 C 91.99403381347656 -5.177332878112793 91.37556457519531 -5.008232593536377 90.72241973876953 -5.008232593536377 C 90.07476043701172 -5.008232593536377 89.46115875244141 -5.174528121948242 88.93241119384766 -5.491330146789551 C 88.77335357666016 -4.925178527832031 88.48035430908203 -4.421457767486572 88.06291961669922 -4.00404691696167 C 87.40281677246094 -3.343903779983521 86.53314208984375 -2.994932413101196 85.54801940917969 -2.994932413101196 C 84.78160095214844 -2.994932413101196 84.08259582519531 -3.209857225418091 83.49742889404297 -3.621309995651245 C 82.90493774414062 -3.246890068054199 82.23158264160156 -3.051375389099121 81.52140045166016 -3.051375389099121 C 80.85024261474609 -3.051375389099121 80.22504425048828 -3.231303930282593 79.66316223144531 -3.586175203323364 C 79.09250640869141 -3.946589469909668 78.65018463134766 -4.463046550750732 78.34851837158203 -5.121232509613037 L 78.34408569335938 -5.130889415740967 L 78.33977508544922 -5.140589714050293 L 78.02149200439453 -5.854960918426514 L 74.51033782958984 -5.854960918426514 L 74.17816162109375 -5.125603675842285 C 73.87093353271484 -4.455360889434814 73.41883087158203 -3.934775352478027 72.83235931396484 -3.573860883712769 C 72.26894378662109 -3.227160930633545 71.64723205566406 -3.051375389099121 70.98444366455078 -3.051375389099121 C 70.46174621582031 -3.051375389099121 69.95609283447266 -3.157695055007935 69.48567962646484 -3.363629341125488 C 69.47090148925781 -3.358142137527466 69.45618438720703 -3.352783203125 69.4412841796875 -3.347471714019775 C 69.67460632324219 -3.235332489013672 69.89009094238281 -3.098582983016968 70.08705902099609 -2.937432527542114 C 70.82704925537109 -2.332018136978149 71.23457336425781 -1.43480384349823 71.23457336425781 -0.4110609889030457 C 71.23457336425781 0.632496178150177 70.83180236816406 1.540553331375122 70.10045623779297 2.145796060562134 C 70.0133056640625 2.217922449111938 69.92243957519531 2.285176277160645 69.82783508300781 2.347596645355225 C 70.49358367919922 2.94814920425415 70.85824584960938 3.81320595741272 70.85824584960938 4.800981998443604 C 70.85824584960938 5.824681758880615 70.45074462890625 6.721881866455078 69.71080017089844 7.327310562133789 C 69.69643402099609 7.339064598083496 69.68196868896484 7.350686550140381 69.66740417480469 7.362181186676025 C 69.82068634033203 7.450770854949951 69.96507263183594 7.551089763641357 70.10044860839844 7.663124561309814 C 70.83180236816406 8.26838207244873 71.23457336425781 9.176424980163574 71.23457336425781 10.2199821472168 C 71.23457336425781 11.24372482299805 70.82704925537109 12.1409387588501 70.08705902099609 12.74635314941406 C 69.44577789306641 13.27105331420898 68.60817718505859 13.53711032867432 67.59757232666016 13.53711032867432 L 61.08726119995117 13.53711032867432 C 59.76494598388672 13.53711032867432 58.94371795654297 12.99343872070312 58.48763275146484 12.53736782073975 C 58.45856857299805 12.50830364227295 58.42916870117188 12.47777557373047 58.39955902099609 12.44571113586426 C 56.98841857910156 13.28275966644287 55.38296127319336 13.70645332336426 53.61731719970703 13.70645332336426 Z M 33.99224472045898 2.755538940429688 C 33.48281860351562 2.755538940429688 33.31297302246094 2.912396192550659 33.19375991821289 3.059424638748169 C 33.04428863525391 3.243781805038452 32.79352951049805 3.727396249771118 32.79352951049805 4.895053386688232 C 32.79352951049805 6.067010402679443 33.0477294921875 6.558353424072266 33.19926071166992 6.746924877166748 C 33.31841659545898 6.895195960998535 33.48778915405273 7.053396224975586 33.99224472045898 7.053396224975586 C 34.49180221557617 7.053396224975586 34.65523147583008 6.900681972503662 34.77981567382812 6.744267463684082 C 35.04494476318359 6.411381721496582 35.19095993041992 5.754653453826904 35.19095993041992 4.895053386688232 C 35.19095993041992 4.042510509490967 35.04593276977539 3.394510507583618 34.7826042175293 3.070410490036011 C 34.65316009521484 2.911081790924072 34.48550415039062 2.755538940429688 33.99224472045898 2.755538940429688 Z M 53.80545806884766 2.830796241760254 C 53.32564544677734 2.830796241760254 53.00894546508789 2.921096086502075 52.8641471862793 3.099181890487671 C 52.75280380249023 3.236124753952026 52.49385833740234 3.685196161270142 52.49385833740234 4.895053386688232 C 52.49385833740234 6.156310558319092 52.77727508544922 6.602896213531494 52.86413192749023 6.709724903106689 C 53.00894546508789 6.887838840484619 53.32564544677734 6.978124618530273 53.80545806884766 6.978124618530273 C 53.96321868896484 6.978124618530273 54.11003112792969 6.954339027404785 54.2542724609375 6.905395984649658 C 54.53155899047852 6.811315059661865 54.90851974487305 6.656717300415039 55.3751335144043 6.445704936981201 C 55.68047714233398 6.286891937255859 55.90928649902344 6.178220272064209 56.09213256835938 6.105082035064697 C 56.45413208007812 5.960267543792725 56.85600280761719 5.886795997619629 57.28643035888672 5.886795997619629 C 57.35406112670898 5.886795997619629 57.42122268676758 5.889003753662109 57.4879035949707 5.893390655517578 L 57.4879035949707 3.915530443191528 C 57.42122268676758 3.919917345046997 57.35406494140625 3.922124624252319 57.28643035888672 3.922124624252319 C 56.85843276977539 3.922124624252319 56.45120239257812 3.850781917572021 56.07604598999023 3.710081815719604 C 55.80325698852539 3.607796192169189 55.51960372924805 3.464343070983887 55.20964050292969 3.27189302444458 C 54.9254150390625 3.102359771728516 54.67059707641602 2.984283685684204 54.45204544067383 2.920824766159058 C 54.24338912963867 2.86025333404541 54.0318603515625 2.830796241760254 53.80545806884766 2.830796241760254 Z M 8.007388114929199 2.830796241760254 C 7.527574062347412 2.830796241760254 7.210859775543213 2.921096086502075 7.066060066223145 3.099181890487671 C 6.95471715927124 3.236124753952026 6.695774078369141 3.685196161270142 6.695774078369141 4.895053386688232 C 6.695774078369141 6.156310558319092 6.979188442230225 6.602896213531494 7.066045761108398 6.709724903106689 C 7.210859775543213 6.887838840484619 7.527559757232666 6.978124618530273 8.007388114929199 6.978124618530273 C 8.165145874023438 6.978124618530273 8.311945915222168 6.954339027404785 8.456188201904297 6.905395984649658 C 8.733474731445312 6.811315059661865 9.110432624816895 6.656717300415039 9.577047348022461 6.445704936981201 C 9.882391929626465 6.286891937255859 10.11119937896729 6.178220272064209 10.29404544830322 6.105082035064697 C 10.65604591369629 5.960267543792725 11.05791664123535 5.886795997619629 11.4883451461792 5.886795997619629 C 11.55597591400146 5.886795997619629 11.62312316894531 5.889002799987793 11.68980312347412 5.893389701843262 L 11.68980312347412 3.915531396865845 C 11.62312126159668 3.919918298721313 11.55597877502441 3.922124624252319 11.4883451461792 3.922124624252319 C 11.06031703948975 3.922124624252319 10.65307426452637 3.850767612457275 10.27791690826416 3.710053205490112 C 10.00519752502441 3.607799291610718 9.721645355224609 3.46441125869751 9.411820411682129 3.272051095962524 C 9.127490043640137 3.102433443069458 8.872580528259277 2.98430323600769 8.653974533081055 2.920824766159058 C 8.445302963256836 2.86025333404541 8.23378849029541 2.830796241760254 8.007388114929199 2.830796241760254 Z M 19.07668876647949 1.427410483360291 L 20.49568748474121 1.427410483360291 L 20.49568748474121 -0.1288181394338608 C 20.49568748474121 -1.451132416725159 21.06493186950684 -2.297946691513062 21.54245948791504 -2.775475263595581 C 21.61451148986816 -2.84752631187439 21.69497680664062 -2.921671152114868 21.78420448303223 -2.995627164840698 C 21.75802230834961 -2.995165109634399 21.73175048828125 -2.994932413101196 21.70541763305664 -2.994932413101196 C 20.69704627990723 -2.994932413101196 19.79735946655273 -3.326346635818481 19.10366058349609 -3.953361034393311 C 18.57988929748535 -4.426775455474854 17.95553207397461 -5.288832187652588 17.95553207397461 -6.707175254821777 L 17.95553207397461 -10.55920219421387 L 16.93165969848633 -11.75535869598389 L 16.93165969848633 -6.537832260131836 C 16.93165969848633 -5.262160778045654 16.38800239562988 -4.450732231140137 15.9319314956665 -3.994661092758179 C 15.86690330505371 -3.929633378982544 15.79978084564209 -3.867657661437988 15.73064613342285 -3.808762788772583 C 16.85575103759766 -3.719967365264893 17.59555816650391 -3.209808826446533 18.02988815307617 -2.775503873825073 C 18.5074462890625 -2.297946691513062 19.07668876647949 -1.451132416725159 19.07668876647949 -0.1288181394338608 L 19.07668876647949 1.427410483360291 Z M 43.77656173706055 -3.822261095046997 C 45.12021636962891 -3.822261095046997 45.9752311706543 -3.260746717453003 46.45590209960938 -2.789689540863037 C 46.85374450683594 -2.39980149269104 47.14503860473633 -1.934496760368347 47.32246017456055 -1.41198194026947 C 47.85435485839844 -1.966608643531799 48.46772766113281 -2.437185525894165 49.158447265625 -2.819475173950195 C 49.3196907043457 -2.908718585968018 49.48411178588867 -2.992445230484009 49.6517448425293 -3.070691823959351 C 49.40349960327148 -3.022516012191772 49.13272857666016 -2.994932413101196 48.83804702758789 -2.994932413101196 C 47.50017547607422 -2.994932413101196 46.65010452270508 -3.564175367355347 46.17257308959961 -4.041703701019287 C 45.85415267944336 -4.360124111175537 45.49494552612305 -4.844226360321045 45.29093170166016 -5.528109550476074 C 44.71621322631836 -4.96092414855957 44.04560852050781 -4.485799789428711 43.28377532958984 -4.107132434844971 C 41.94968795776367 -3.444032430648804 40.36824417114258 -3.107818126678467 38.58334732055664 -3.107818126678467 L 37.91398239135742 -3.107818126678467 C 38.11012649536133 -3.019101619720459 38.30167388916016 -2.923020124435425 38.48871612548828 -2.819503784179688 C 39.16284942626953 -2.446388244628906 39.76150131225586 -1.990240931510925 40.28112030029297 -1.454706788063049 C 40.4904899597168 -2.050394058227539 40.81801986694336 -2.482403755187988 41.11104583740234 -2.775446653366089 C 41.58861541748047 -3.253018140792847 42.43869018554688 -3.822261095046997 43.77656173706055 -3.822261095046997 Z M 7.819231510162354 -3.897518157958984 C 9.585877418518066 -3.897518157958984 11.19225978851318 -3.473279476165771 12.60395050048828 -2.635306119918823 C 12.64857959747314 -2.685148000717163 12.69298458099365 -2.731871604919434 12.73658847808838 -2.775475263595581 C 12.81566429138184 -2.854550838470459 12.90489196777344 -2.936162710189819 13.00469970703125 -3.017266035079956 C 12.21214008331299 -3.102537870407104 11.50687885284424 -3.430662393569946 10.94620227813721 -3.978903770446777 C 10.61960887908936 -4.298243999481201 10.24916553497314 -4.792237758636475 10.05544567108154 -5.499426364898682 C 9.523586273193359 -5.177327156066895 8.905126571655273 -5.008232593536377 8.251988410949707 -5.008232593536377 C 7.604355335235596 -5.008232593536377 6.990731239318848 -5.174541473388672 6.461980819702148 -5.491322040557861 C 6.302930355072021 -4.925167560577393 6.009932041168213 -4.421448707580566 5.592502593994141 -4.00404691696167 C 5.388383865356445 -3.799923419952393 5.164271831512451 -3.625576496124268 4.922872066497803 -3.482075452804565 C 5.81797456741333 -3.758246898651123 6.786704063415527 -3.897518157958984 7.819231510162354 -3.897518157958984 Z M 57.70561599731445 -3.007638454437256 C 57.94185638427734 -2.894673347473145 58.17317199707031 -2.77106499671936 58.3995475769043 -2.636781930923462 C 58.42915725708008 -2.668843746185303 58.45853042602539 -2.699342727661133 58.48758697509766 -2.728403806686401 C 58.75383758544922 -2.994636535644531 59.14447784423828 -3.290688991546631 59.6865119934082 -3.491045951843262 C 59.54305267333984 -3.562333822250366 59.41281127929688 -3.639774560928345 59.29501342773438 -3.719945192337036 C 58.82240295410156 -3.358615636825562 58.28329849243164 -3.11789083480835 57.70561599731445 -3.007638454437256 Z M 52.52627944946289 -6.4866943359375 C 52.46890258789062 -5.284843444824219 51.94887161254883 -4.505781650543213 51.50861740112305 -4.056361198425293 C 51.33175659179688 -3.875814914703369 51.10284805297852 -3.682311058044434 50.81547927856445 -3.510648727416992 C 51.6840934753418 -3.767818450927734 52.62109375 -3.897518157958984 53.61731719970703 -3.897518157958984 C 53.90790557861328 -3.897518157958984 54.19403457641602 -3.88604998588562 54.47579574584961 -3.863142728805542 C 54.22040176391602 -4.085278987884521 53.99111557006836 -4.344753742218018 53.79001617431641 -4.639689445495605 L 52.52627944946289 -6.4866943359375 Z M 38.64530181884766 -13.57983589172363 L 38.64530181884766 -9.901233673095703 C 39.21295547485352 -9.934481620788574 39.63337326049805 -10.06279468536377 39.84551620483398 -10.27081775665283 C 40.08367538452148 -10.50434684753418 40.2148323059082 -11.02961826324463 40.2148323059082 -11.74987506866455 C 40.2148323059082 -12.45597553253174 40.08281707763672 -12.98910427093506 39.85264587402344 -13.21257495880127 C 39.63959121704102 -13.41942405700684 39.21657943725586 -13.54694080352783 38.64530181884766 -13.57983589172363 Z"/></g></g></svg>